<svg width="24" height="24" viewBox="0 0 24 24" fill="none" xmlns="http://www.w3.org/2000/svg">
<path d="M6.5 7.5C6.5 6.04131 7.07946 4.64236 8.11091 3.61091C9.14236 2.57946 10.5413 2 12 2C13.4587 2 14.8576 2.57946 15.8891 3.61091C16.9205 4.64236 17.5 6.04131 17.5 7.5C17.5 8.95869 16.9205 10.3576 15.8891 11.3891C14.8576 12.4205 13.4587 13 12 13C10.5413 13 9.14236 12.4205 8.11091 11.3891C7.07946 10.3576 6.5 8.95869 6.5 7.5ZM3 19C3 17.6739 3.52678 16.4021 4.46447 15.4645C5.40215 14.5268 6.67392 14 8 14H16C17.3261 14 18.5979 14.5268 19.5355 15.4645C20.4732 16.4021 21 17.6739 21 19V22H3V19Z" fill="black"/>
</svg>
